<svg id="Layer_1" data-name="Layer 1" xmlns="http://www.w3.org/2000/svg" viewBox="0 0 18.18 13.96"><defs><style>.cls-1{fill:#fff;}.cls-2{fill:#8c1b3d;}</style></defs><rect class="cls-1" width="18.18" height="13.96"/><path class="cls-2" d="M4.35,12.36,7,11.62l-2.8-.77L7,10.07,4.22,9.3,7,8.53,4.35,7.79V7.71L7,7,4.23,6.21,7,5.43,4.22,4.66,7,3.89,4.22,3.1,7,2.34,4.34,1.59V1.52L7,.79,4.44.07V0h13.3c.35,0,.43.09.43.43q0,6.56,0,13.12c0,.23,0,.41-.31.41H4.39c.83-.24,1.71-.53,2.63-.79l-2.66-.73Z"/></svg>