<?xml version="1.0" encoding="utf-8"?>
<!-- Generator: Adobe Illustrator 24.3.0, SVG Export Plug-In . SVG Version: 6.00 Build 0)  -->
<svg version="1.2" baseProfile="tiny" xmlns="http://www.w3.org/2000/svg" xmlns:xlink="http://www.w3.org/1999/xlink" x="0px"
	 y="0px" viewBox="0 0 133.6 29.6" overflow="visible" xml:space="preserve">
<g id="Layer_1">
	<g>
		<path fill="#FFFFFF" d="M73.3,27.9V13.7h1.2v2.8c0.6-0.9,1.3-1.6,2.1-2.1c0.8-0.5,1.8-0.7,2.9-0.7c0.1,0,0.2,0,0.3,0
			c0.1,0,0.3,0,0.5,0.1v1.2c0,0,0,0-0.1,0c-0.5,0-0.8-0.1-0.9-0.1c-1.4,0-2.5,0.5-3.4,1.6c-0.9,1-1.3,2.4-1.3,4v7.5H73.3z"/>
		<path fill="#FFFFFF" d="M92.4,27.9v-6.4c0-2.1-0.5-3.8-1.6-5.1c-1.1-1.3-2.5-1.9-4.3-1.9c-1.7,0-3.1,0.6-4.2,1.8s-1.7,2.7-1.7,4.4
			c0,1.8,0.6,3.3,1.7,4.5c1.1,1.2,2.5,1.8,4.2,1.8c0.9,0,1.8-0.2,2.6-0.6c0.8-0.4,1.6-1,2.3-1.8v1.6c-0.7,0.6-1.5,1.1-2.3,1.4
			c-0.8,0.3-1.7,0.5-2.6,0.5c-1,0-2-0.2-2.9-0.5c-0.9-0.4-1.6-0.9-2.3-1.6s-1.2-1.5-1.5-2.4c-0.3-0.9-0.5-1.8-0.5-2.8
			c0-2.1,0.7-3.9,2-5.3c1.3-1.4,3-2.1,5.1-2.1c1.3,0,2.5,0.3,3.5,0.9c1.1,0.6,1.9,1.5,2.6,2.6c0.3,0.6,0.6,1.2,0.7,2
			c0.2,0.7,0.2,1.6,0.2,2.7v6.3H92.4z"/>
		<path fill="#FFFFFF" d="M107.9,6.9h1.2V20c0,1-0.1,1.9-0.2,2.7c-0.2,0.7-0.4,1.4-0.7,2c-0.7,1.1-1.6,2-2.6,2.6
			c-1.1,0.6-2.2,0.9-3.5,0.9c-2.1,0-3.8-0.7-5.1-2.1c-1.3-1.4-2-3.1-2-5.3c0-1,0.2-1.9,0.5-2.8c0.3-0.9,0.8-1.7,1.5-2.4
			c0.7-0.7,1.4-1.2,2.3-1.6c0.9-0.4,1.8-0.6,2.9-0.6c0.9,0,1.8,0.2,2.6,0.5c0.8,0.3,1.6,0.8,2.3,1.4V17c-0.7-0.8-1.5-1.4-2.3-1.8
			c-0.8-0.4-1.7-0.6-2.6-0.6c-1.7,0-3.1,0.6-4.2,1.8c-1.1,1.2-1.7,2.7-1.7,4.5c0,1.8,0.6,3.3,1.7,4.4c1.1,1.2,2.5,1.8,4.2,1.8
			c1.8,0,3.2-0.6,4.3-1.9c1.1-1.3,1.6-2.9,1.6-5.1V6.9z"/>
		<path fill="#FFFFFF" d="M123.1,27.9v-6.4c0-2.1-0.5-3.8-1.6-5.1c-1.1-1.3-2.5-1.9-4.3-1.9c-1.7,0-3.1,0.6-4.2,1.8
			c-1.1,1.2-1.7,2.7-1.7,4.4c0,1.8,0.6,3.3,1.7,4.5c1.1,1.2,2.5,1.8,4.2,1.8c0.9,0,1.8-0.2,2.6-0.6c0.8-0.4,1.6-1,2.3-1.8v1.6
			c-0.7,0.6-1.5,1.1-2.3,1.4c-0.8,0.3-1.7,0.5-2.6,0.5c-1,0-2-0.2-2.9-0.5c-0.9-0.4-1.6-0.9-2.3-1.6c-0.7-0.7-1.2-1.5-1.5-2.4
			c-0.3-0.9-0.5-1.8-0.5-2.8c0-2.1,0.7-3.9,2-5.3c1.3-1.4,3-2.1,5.1-2.1c1.3,0,2.5,0.3,3.5,0.9c1.1,0.6,1.9,1.5,2.6,2.6
			c0.3,0.6,0.6,1.2,0.7,2c0.2,0.7,0.2,1.6,0.2,2.7v6.3H123.1z"/>
		<path fill="#FFFFFF" d="M125.5,27.9V13.7h1.2v2.8c0.6-0.9,1.3-1.6,2.1-2.1c0.8-0.5,1.8-0.7,2.9-0.7c0.1,0,0.2,0,0.3,0
			c0.1,0,0.3,0,0.5,0.1v1.2c0,0,0,0-0.1,0c-0.5,0-0.8-0.1-0.9-0.1c-1.4,0-2.5,0.5-3.4,1.6c-0.9,1-1.3,2.4-1.3,4v7.5H125.5z"/>
		<g>
			<g>
				<path fill="#FFFFFF" d="M36.8,28.2h2.9v-8.4c0-0.8-0.2-1.5-0.5-2.2c-0.3-0.7-0.8-1.4-1.4-2c-0.6-0.6-1.4-1.1-2.3-1.4
					c-0.9-0.3-2-0.5-3.2-0.5c-1.2,0-2.3,0.2-3.3,0.5c-0.9,0.4-1.7,0.9-2.4,1.6c-0.6,0.7-1.1,1.5-1.4,2.4c-0.3,0.9-0.5,1.8-0.5,2.8
					c0,1.1,0.2,2.2,0.5,3.1c0.3,0.9,0.8,1.7,1.5,2.4c0.7,0.7,1.4,1.2,2.2,1.5c0.8,0.3,1.6,0.5,2.6,0.5c0,0,0,0,0,0c0,0,0,0,0,0
					c0,0,0,0,0.1,0c0,0,0,0,0.1,0c0,0,0.1,0,0.1,0c0,0,0,0,0,0c0,0,0,0,0,0c0.5,0,1,0,1.4-0.1c0.4,0,0.7-0.1,1-0.2
					c0.3-0.1,0.6-0.2,0.8-0.3c0.3-0.1,0.5-0.3,0.8-0.4v0c0,0,0,0,0.1-0.1V24c-0.1,0.1-0.2,0.2-0.3,0.3c-0.1,0.1-0.2,0.2-0.3,0.3
					c-0.1,0.1-0.2,0.2-0.3,0.3c-0.1,0.1-0.2,0.2-0.3,0.2c-0.1,0.1-0.2,0.2-0.3,0.2c-0.1,0.1-0.2,0.1-0.3,0.2c-0.1,0-0.2,0.1-0.3,0.1
					c-0.1,0-0.2,0.1-0.3,0.1c-0.2,0.1-0.4,0.1-0.6,0.2c-0.2,0-0.4,0-0.7,0c0,0,0,0-0.1,0c0,0-0.1,0-0.1,0c0,0-0.1,0-0.1,0
					c0,0-0.1,0-0.1,0c0,0,0,0-0.1,0c0,0-0.1,0-0.1,0c0,0,0,0-0.1,0c0,0-0.1,0-0.1,0c-0.5-0.1-1.1-0.2-1.5-0.4
					c-0.5-0.2-1-0.5-1.4-0.9c-0.4-0.4-0.8-0.9-1-1.5c-0.2-0.6-0.3-1.3-0.3-2.1c0-0.6,0.1-1.1,0.3-1.6c0.2-0.5,0.4-0.9,0.6-1.2
					c0.3-0.3,0.6-0.6,0.9-0.9c0.3-0.2,0.6-0.4,0.9-0.6c0.2-0.1,0.4-0.2,0.5-0.2c0.2-0.1,0.4-0.1,0.5-0.1c0.2,0,0.3-0.1,0.5-0.1
					c0.2,0,0.3,0,0.4,0c0.9,0,1.6,0.1,2.3,0.3c0.6,0.2,1.1,0.5,1.4,0.9c0.3,0.4,0.6,0.8,0.8,1.2c0.2,0.4,0.3,0.9,0.3,1.3V28.2z"/>
				<path fill="#FFFFFF" d="M51.5,18.4c0.1,0.4,0.2,0.9,0.2,1.3v8.5h2.9v-8.9c0,0,0-0.1,0-0.1c0,0,0-0.1,0-0.1c0,0,0-0.1,0-0.1
					c0,0,0-0.1,0-0.1c0-0.7-0.1-1.4-0.3-1.9c-0.2-0.6-0.5-1-0.8-1.4c-0.4-0.4-0.7-0.7-1.1-1c-0.4-0.3-0.8-0.5-1.2-0.7
					c-0.2-0.1-0.5-0.2-0.7-0.2c-0.2-0.1-0.5-0.1-0.7-0.2c-0.2,0-0.4-0.1-0.6-0.1c-0.2,0-0.4,0-0.5,0c-1,0-1.9,0.2-2.7,0.5
					c-0.8,0.3-1.5,0.8-2,1.4c-0.6,0.6-1,1.3-1.3,2c-0.3,0.7-0.4,1.5-0.4,2.3v8.7h2.6v-8.7c0.1-0.5,0.2-0.9,0.3-1.3
					c0.2-0.4,0.4-0.8,0.7-1.2c0.3-0.4,0.7-0.6,1.1-0.8c0.4-0.2,0.9-0.3,1.4-0.3c0.6,0,1.1,0.1,1.5,0.3c0.4,0.2,0.8,0.5,1,0.9
					C51.1,17.6,51.3,18,51.5,18.4z"/>
				<path fill="#009FE3" d="M1.4,14c-0.1,0-0.2,0.1-0.2,0.2v2.2c0,0.1,0.1,0.2,0.2,0.2s0.2-0.1,0.2-0.2v-2.2C1.6,14.1,1.5,14,1.4,14
					z"/>
				<path fill="#009FE3" d="M2.2,13.3c-0.1,0-0.2,0.1-0.2,0.2v2.7c0,0.1,0.1,0.2,0.2,0.2c0.1,0,0.2-0.1,0.2-0.2v-2.7
					C2.4,13.4,2.3,13.3,2.2,13.3z"/>
				<path fill="#009FE3" d="M3,12.6c-0.1,0-0.2,0.1-0.2,0.2v3.1c0,0.1,0.1,0.2,0.2,0.2s0.2-0.1,0.2-0.2v-3.1
					C3.2,12.7,3.1,12.6,3,12.6z"/>
				<path fill="#009FE3" d="M3.8,12c-0.1,0-0.2,0.1-0.2,0.2v3.5c0,0.1,0.1,0.2,0.2,0.2S4,15.8,4,15.7v-3.5C4,12.1,3.9,12,3.8,12z"/>
				<path fill="#009FE3" d="M4.6,11.3c-0.1,0-0.2,0.1-0.2,0.2v3.9c0,0.1,0.1,0.2,0.2,0.2s0.2-0.1,0.2-0.2v-3.9
					C4.8,11.4,4.7,11.3,4.6,11.3z"/>
				<path fill="#009FE3" d="M5.4,20.3c-0.1,0-0.2,0.1-0.2,0.2v1.7c0,0.1,0.1,0.2,0.2,0.2c0.1,0,0.2-0.1,0.2-0.2v-1.7
					C5.6,20.4,5.5,20.3,5.4,20.3z"/>
				<path fill="#009FE3" d="M6.1,19.6c-0.1,0-0.2,0.1-0.2,0.2v2.1c0,0.1,0.1,0.2,0.2,0.2c0.1,0,0.2-0.1,0.2-0.2v-2.1
					C6.4,19.7,6.3,19.6,6.1,19.6z"/>
				<path fill="#009FE3" d="M6.9,18.8c-0.1,0-0.2,0.1-0.2,0.2v2.5c0,0.1,0.1,0.2,0.2,0.2c0.1,0,0.2-0.1,0.2-0.2v-2.5
					C7.2,18.9,7.1,18.8,6.9,18.8z"/>
				<path fill="#009FE3" d="M8.5,21.2c0.1,0,0.2-0.1,0.2-0.2V2.7c0-0.1-0.1-0.2-0.2-0.2S8.3,2.6,8.3,2.7V21
					C8.3,21.1,8.4,21.2,8.5,21.2z"/>
				<path fill="#009FE3" d="M9.3,20.9c0.1,0,0.2-0.1,0.2-0.2V1.4c0-0.1-0.1-0.2-0.2-0.2c-0.1,0-0.2,0.1-0.2,0.2v19.4
					C9.1,20.9,9.2,20.9,9.3,20.9z"/>
				<path fill="#009FE3" d="M10.1,21.2c0.1,0,0.2-0.1,0.2-0.2V2.6c0-0.1-0.1-0.2-0.2-0.2S9.9,2.5,9.9,2.6V21
					C9.9,21.1,10,21.2,10.1,21.2z"/>
				<path fill="#009FE3" d="M10.9,14.6c0.1,0,0.2-0.1,0.2-0.2v-8c0-0.1-0.1-0.2-0.2-0.2c-0.1,0-0.2,0.1-0.2,0.2v8
					C10.7,14.5,10.8,14.6,10.9,14.6z"/>
				<path fill="#009FE3" d="M11.7,14.8c0.1,0,0.2-0.1,0.2-0.2V9.5c0-0.1-0.1-0.2-0.2-0.2s-0.2,0.1-0.2,0.2v5.1
					C11.5,14.7,11.6,14.8,11.7,14.8z"/>
				<path fill="#009FE3" d="M12.5,15.1c0.1,0,0.2-0.1,0.2-0.2v-4.7c0-0.1-0.1-0.2-0.2-0.2c-0.1,0-0.2,0.1-0.2,0.2v4.7
					C12.3,15,12.4,15.1,12.5,15.1z"/>
				<path fill="#009FE3" d="M13.3,15.4c0.1,0,0.2-0.1,0.2-0.2v-4.3c0-0.1-0.1-0.2-0.2-0.2s-0.2,0.1-0.2,0.2v4.3
					C13.1,15.3,13.2,15.4,13.3,15.4z"/>
				<path fill="#009FE3" d="M14.1,15.6c0.1,0,0.2-0.1,0.2-0.2v-3.9c0-0.1-0.1-0.2-0.2-0.2s-0.2,0.1-0.2,0.2v3.9
					C13.9,15.5,14,15.6,14.1,15.6z"/>
				<path fill="#009FE3" d="M10.9,21.5c0.1,0,0.2-0.1,0.2-0.2v-3c0-0.1-0.1-0.2-0.2-0.2c-0.1,0-0.2,0.1-0.2,0.2v3
					C10.7,21.4,10.8,21.5,10.9,21.5z"/>
				<path fill="#009FE3" d="M11.7,21.8c0.1,0,0.2-0.1,0.2-0.2V19c0-0.1-0.1-0.2-0.2-0.2s-0.2,0.1-0.2,0.2v2.6
					C11.5,21.7,11.6,21.8,11.7,21.8z"/>
				<path fill="#009FE3" d="M12.5,22.1c0.1,0,0.2-0.1,0.2-0.2v-2.2c0-0.1-0.1-0.2-0.2-0.2c-0.1,0-0.2,0.1-0.2,0.2v2.2
					C12.3,22,12.4,22.1,12.5,22.1z"/>
				<path fill="#009FE3" d="M13.3,22.4c0.1,0,0.2-0.1,0.2-0.2v-1.8c0-0.1-0.1-0.2-0.2-0.2s-0.2,0.1-0.2,0.2v1.8
					C13.1,22.3,13.2,22.4,13.3,22.4z"/>
				<path fill="#009FE3" d="M14.9,15.9c0.1,0,0.2-0.1,0.2-0.2v-3.5c0-0.1-0.1-0.2-0.2-0.2c-0.1,0-0.2,0.1-0.2,0.2v3.5
					C14.7,15.8,14.8,15.9,14.9,15.9z"/>
				<path fill="#009FE3" d="M15.7,16.1c0.1,0,0.2-0.1,0.2-0.2v-3.1c0-0.1-0.1-0.2-0.2-0.2s-0.2,0.1-0.2,0.2v3.1
					C15.5,16,15.6,16.1,15.7,16.1z"/>
				<path fill="#009FE3" d="M16.5,16.4c0.1,0,0.2-0.1,0.2-0.2v-2.7c0-0.1-0.1-0.2-0.2-0.2s-0.2,0.1-0.2,0.2v2.7
					C16.3,16.3,16.4,16.4,16.5,16.4z"/>
				<path fill="#009FE3" d="M17.3,16.7c0.1,0,0.2-0.1,0.2-0.2v-2.3c0-0.1-0.1-0.2-0.2-0.2s-0.2,0.1-0.2,0.2v2.3
					C17.1,16.6,17.2,16.7,17.3,16.7z"/>
				<path fill="#009FE3" d="M5.4,10.6c-0.1,0-0.2,0.1-0.2,0.2v4.3c0,0.1,0.1,0.2,0.2,0.2c0.1,0,0.2-0.1,0.2-0.2v-4.3
					C5.6,10.7,5.5,10.6,5.4,10.6z"/>
				<path fill="#009FE3" d="M6.1,10c-0.1,0-0.2,0.1-0.2,0.2v4.7c0,0.1,0.1,0.2,0.2,0.2c0.1,0,0.2-0.1,0.2-0.2v-4.7
					C6.4,10.1,6.3,10,6.1,10z"/>
				<path fill="#009FE3" d="M6.9,9.3c-0.1,0-0.2,0.1-0.2,0.2v5.1c0,0.1,0.1,0.2,0.2,0.2c0.1,0,0.2-0.1,0.2-0.2V9.5
					C7.2,9.4,7.1,9.3,6.9,9.3z"/>
				<path fill="#009FE3" d="M7.7,6.2c-0.1,0-0.2,0.1-0.2,0.2v8v6.9c0,0.1,0.1,0.2,0.2,0.2c0.1,0,0.2-0.1,0.2-0.2v-6.9v-8
					C7.9,6.3,7.9,6.2,7.7,6.2z"/>
				<path fill="#FFFFFF" d="M18.1,15.5c-0.1,0-0.2,0.1-0.1,0.1c1.4,1,2.3,2.8,2.3,4.9c0,3.2-2.4,5.4-4.8,5.4c-2.2,0.1-4-1.4-4.6-3.7
					l-1.4-0.4l-1.3,0.6c0.4,3.4,3.4,6,7,6c3.9,0,7.1-3,7.1-6.8C22.3,19,20.6,16.6,18.1,15.5z"/>
				<g>
					<path fill="#FFFFFF" d="M67.6,24.3l1.7,1.7c-1.3,1.3-3.7,2.2-5.7,2.2c-3.9,0-7.3-3.1-7.3-7.4c0-4.2,3.1-7.3,7-7.3
						c4.3,0,6.8,3.3,6.8,8.3H59.1c0.4,2.3,2.1,4,4.5,4C65.1,25.8,66.8,25.2,67.6,24.3z M59.1,19.6h8.5c-0.3-2.2-1.6-3.8-4.1-3.8
						C61.3,15.8,59.6,17.3,59.1,19.6z"/>
				</g>
			</g>
		</g>
	</g>
</g>
<g id="Layer_2">
</g>
</svg>
