<svg id="Layer_1" data-name="Layer 1" xmlns="http://www.w3.org/2000/svg" viewBox="0 0 23.11 26.28"><defs><style>.cls-1{fill:#5a5a5a;}</style></defs><path id="Path_12" data-name="Path 12" class="cls-1" d="M8.86,17.24l-2.45,1-5,2.06a2,2,0,0,1-.54.14A.69.69,0,0,1,0,19.91a1,1,0,0,1,0-.25,5,5,0,0,1,.17-1.38,2.27,2.27,0,0,1,.67-1c2.19-1.76,4.4-3.48,6.6-5.21.38-.3.75-.6,1.14-.89a.82.82,0,0,0,.35-.74c0-2.41,0-4.83,0-7.24a3.23,3.23,0,0,1,1.73-3c.85-.49,1.69-.31,2.63.68a3.16,3.16,0,0,1,.85,2.26c0,2.42,0,4.83,0,7.25a.88.88,0,0,0,.38.77c2.6,2,5.18,4.08,7.77,6.12A1.59,1.59,0,0,1,23,18.55c0,.33.1.66.12,1a.73.73,0,0,1-.56.9.69.69,0,0,1-.45,0,13.54,13.54,0,0,1-1.38-.53l-6.25-2.55a2.55,2.55,0,0,0-.25-.08c0,.13,0,.26,0,.39v4.71a.58.58,0,0,0,.36.62c.75.36,1.48.75,2.21,1.13a1.43,1.43,0,0,1,.51,1.82.79.79,0,0,1-1,.3c-1.43-.32-2.86-.66-4.31-.89a4.66,4.66,0,0,0-1.62.16c-1.17.22-2.33.48-3.5.73-.72.15-1.13-.18-1.1-.92A1.31,1.31,0,0,1,6.53,24c.7-.32,1.37-.71,2.06-1.05a.55.55,0,0,0,.35-.54c0-1.6,0-3.2,0-4.8A1.78,1.78,0,0,0,8.86,17.24Zm13,2c.23-.7-.17-1-.6-1.37q-3.9-3-7.78-6a.87.87,0,0,1-.37-.77c0-2.44,0-4.89,0-7.33A2.64,2.64,0,0,0,12,1.25a.84.84,0,0,0-1,0A2.4,2.4,0,0,0,10,3.44q0,3.75,0,7.51a1,1,0,0,1-.45.9c-2.67,2.07-5.31,4.16-8,6.22a1.11,1.11,0,0,0-.38,1.17l8.75-3.59c0,.12,0,.24.05.36v7.07a.49.49,0,0,1-.31.5c-.74.38-1.47.77-2.2,1.16-.14.07-.26.17-.39.25,1.16-.14,2.26-.38,3.37-.6a4.51,4.51,0,0,1,1.37-.16c.92.12,1.82.36,2.73.54l1.38.25a.64.64,0,0,0-.31-.32c-.7-.37-1.39-.74-2.09-1.08a.58.58,0,0,1-.36-.6c0-2.32,0-4.63,0-6.94,0-.12,0-.24,0-.42Z"/></svg>