<svg id="Layer_1" data-name="Layer 1" xmlns="http://www.w3.org/2000/svg" viewBox="0 0 20.25 22.09"><defs><style>.cls-1{fill:#faa718;}</style></defs><g id="Group_47" data-name="Group 47"><path id="Path_26" data-name="Path 26" class="cls-1" d="M17.17,0a7.61,7.61,0,0,1,1,.31,3.44,3.44,0,0,1-.95,6.56,3.38,3.38,0,0,1-2.88-1l-.15-.15h0L6.74,10a3.55,3.55,0,0,1,0,2.14l7.45,4.25a3.46,3.46,0,0,1,2.91-1.16,3.32,3.32,0,0,1,2.17,1,3.45,3.45,0,1,1-5.76,1.33L6.06,13.32a3.43,3.43,0,0,1-2.87,1.17A3.36,3.36,0,0,1,.9,13.37a3.44,3.44,0,0,1,0-4.7,3.49,3.49,0,0,1,4.93-.1,1.8,1.8,0,0,1,.19.2L13.5,4.54c-.05-.27-.1-.52-.13-.77A3.45,3.45,0,0,1,16.26,0l.14,0Zm1.69,3.45A2.07,2.07,0,1,0,16.8,5.53h0a2.07,2.07,0,0,0,2.06-2.08ZM3.45,9a2.07,2.07,0,1,0,2.07,2.07h0A2.07,2.07,0,0,0,3.45,9Zm15.41,9.67a2.07,2.07,0,1,0-2.07,2.06h0a2.05,2.05,0,0,0,2.07-2.06Z"/></g></svg>