<svg id="Layer_1" data-name="Layer 1" xmlns="http://www.w3.org/2000/svg" viewBox="0 0 25.03 25"><defs><style>.cls-1{fill:#fff;}</style></defs><g id="Group_44" data-name="Group 44"><path id="Path_22" data-name="Path 22" class="cls-1" d="M24.61,16.49l-4.5-2.79a.37.37,0,0,1-.2-.35c0-.79,0-1.57,0-2.35V8.65A.7.7,0,0,0,19.53,8L12.91,4.12a.71.71,0,0,0-.8,0C9.93,5.4,7.75,6.68,5.56,7.94a.8.8,0,0,0-.44.78c0,1.49,0,3,0,4.47a.6.6,0,0,1-.35.6L.41,16.49c-.55.34-.55.79,0,1.13l11.65,7.23a.77.77,0,0,0,.91,0q5.8-3.62,11.63-7.21C25.16,17.29,25.17,16.84,24.61,16.49ZM18.76,9.55v6.36a.35.35,0,0,1-.18.37l-5.31,3.1-.19.09V13.08a.36.36,0,0,1,.2-.36c1.76-1,3.51-2,5.26-3.06a1.12,1.12,0,0,1,.22-.11ZM7.07,8.39l5.24-3.06a.32.32,0,0,1,.38,0q2.69,1.58,5.38,3.14l.13.09L15.66,10l-2.94,1.71a.45.45,0,0,1-.36,0c-1.81-1-3.62-2.1-5.43-3.17l-.09-.06a1.42,1.42,0,0,1,.23-.14ZM6.27,9.7a.77.77,0,0,1,0-.15l.22.12,5.22,3A.35.35,0,0,1,12,13c0,2.09,0,4.18,0,6.26,0,.05,0,.09,0,.17l-.24-.13-5.22-3c-.12-.07-.21-.13-.21-.3V9.7Zm16.27,7.88-9.78,6.06a.38.38,0,0,1-.49,0L1.88,17.2a1.25,1.25,0,0,1-.21-.14L5.1,14.94c0,.1,0,.17,0,.23V16.4a.65.65,0,0,0,.36.63l6.69,3.91a.64.64,0,0,0,.7,0q3.35-2,6.69-3.9a.68.68,0,0,0,.35-.64V14.93l3.46,2.14-.84.51Z"/><path id="Path_23" data-name="Path 23" class="cls-1" d="M4,4.55h2.2V3.42l-.46,0a11.22,11.22,0,0,1,13.46,0l-.46,0V4.53l.25,0h1.87c.51,0,.71-.21.72-.74V2a2.28,2.28,0,0,0,0-.26H20.46V2.85a12.53,12.53,0,0,0-15.92,0V1.72H3.41c0,.78,0,1.53,0,2.28A.56.56,0,0,0,4,4.56Z"/></g></svg>