<svg id="Layer_1" data-name="Layer 1" xmlns="http://www.w3.org/2000/svg" viewBox="0 0 27.31 21.11"><defs><style>.cls-1{fill:#fff;}</style></defs><path id="Path_24" data-name="Path 24" class="cls-1" d="M24.06,14.61a3.25,3.25,0,0,0-3.18,2.58H5.74a2.86,2.86,0,0,1,0-5.71h5.09A4.17,4.17,0,0,0,15,7.33V6.76A4.17,4.17,0,0,0,10.83,2.6H6.44a3.26,3.26,0,1,0,0,1.3h4.39a2.87,2.87,0,0,1,2.86,2.86v.56a2.87,2.87,0,0,1-2.86,2.86H5.74a4.16,4.16,0,0,0,0,8.31H20.87a3.25,3.25,0,1,0,3.19-3.88ZM3.26,5.21a2,2,0,1,1,2-1.95,2.06,2.06,0,0,1-.11.65,2,2,0,0,1-1.85,1.3Zm20.8,14.6a1.95,1.95,0,1,1,2-1.95h0a2,2,0,0,1-2,1.95Z"/></svg>