<svg id="Layer_1" data-name="Layer 1" xmlns="http://www.w3.org/2000/svg" viewBox="0 0 19.46 20.68"><defs><style>.cls-1{fill:none;}.cls-2{fill:#fff;}</style></defs><g id="icon-fr24-info-round-2" data-name="icon-fr24-info-round"><g id="Group_36" data-name="Group 36"><path id="Path_13" data-name="Path 13" class="cls-1" d="M7.81,3.51C8.39,3.27,9,3,9.61,2.72l-.78-.24c-1-.3-2-.61-3-.89a1.47,1.47,0,0,0-1.16.12L7.61,3.5A.28.28,0,0,0,7.81,3.51Z"/><path id="Path_14" data-name="Path 14" class="cls-1" d="M13.06,4.59a.83.83,0,0,1,.36-.36C14.64,3.61,15.88,3,17.1,2.38c.48-.25.92-.57,1.38-.86V1.41A4.87,4.87,0,0,0,17.67,1a3.75,3.75,0,0,0-2.81.24l-4,1.8C8.66,4,6.44,5,4.24,6a1.26,1.26,0,0,1-1.41-.14c-.48-.37-1-.73-1.46-1.09a.57.57,0,0,0-.6-.09c0,.11.09.22.13.32.35.8.75,1.57,1,2.39a1.06,1.06,0,0,0,1.12.73,3.87,3.87,0,0,0,.48,0A14.23,14.23,0,0,0,7.28,7c1-.41,2-.87,3.05-1.32L9.84,8.28a6.32,6.32,0,0,1,1.8-.63Z"/><path id="Path_15" data-name="Path 15" class="cls-1" d="M13.33,17.3a.45.45,0,0,1-.48.42.44.44,0,0,1-.42-.42V12.82a.46.46,0,0,1,.48-.42.47.47,0,0,1,.42.42Zm-.83-6.73a.6.6,0,0,1,.76,0,.57.57,0,0,1,.17.41.54.54,0,0,1-.18.41.59.59,0,0,1-.75,0c-.1-.07-.14-.19-.14-.41s0-.35.14-.41Z"/><path id="Path_16" data-name="Path 16" class="cls-2" d="M12.87,12.41a.44.44,0,0,0-.45.41h0V17.3a.45.45,0,0,0,.48.42.44.44,0,0,0,.42-.42V12.82a.42.42,0,0,0-.44-.41Z"/><path id="Path_17" data-name="Path 17" class="cls-2" d="M12.5,11.39a.54.54,0,0,0,.77,0,.58.58,0,0,0,0-.8.59.59,0,0,0-.75,0c-.1.07-.14.19-.14.41S12.4,11.33,12.5,11.39Z"/><path id="Path_18" data-name="Path 18" class="cls-2" d="M12.87,7.53h-.33c.36-.78.73-1.56,1.09-2.35a.78.78,0,0,1,.4-.4c1.36-.7,2.73-1.39,4.08-2.11a4.89,4.89,0,0,0,1-.79.53.53,0,0,0,.1-.74.3.3,0,0,0-.08-.08,2.77,2.77,0,0,0-.84-.68,4,4,0,0,0-3.37,0c-1.35.55-2.68,1.17-4,1.77a.78.78,0,0,1-.56,0L6.47,1A3.08,3.08,0,0,0,4,1.14a.55.55,0,0,0-.34.69.52.52,0,0,0,.19.27,1.73,1.73,0,0,0,.31.22L6.85,3.94c-1,.45-2,.87-2.93,1.33a.51.51,0,0,1-.59-.07c-.48-.36-1-.72-1.45-1.06a1.74,1.74,0,0,0-.59-.3,1.05,1.05,0,0,0-1.11.3.87.87,0,0,0,0,1C.58,6.07,1,7,1.39,7.9a1.38,1.38,0,0,0,1.09.87,3,3,0,0,0,1,0,14.13,14.13,0,0,0,2.13-.44C6.86,8,8.07,7.47,9.31,7L9,8.83a6.58,6.58,0,1,0,3.92-1.3ZM4.67,1.71a1.48,1.48,0,0,1,1.16-.12c1,.28,2,.59,3,.89l.77.24C9,3,8.39,3.27,7.82,3.51a.27.27,0,0,1-.2,0L4.67,1.71ZM7.29,7A14.74,14.74,0,0,1,3.56,8a3.87,3.87,0,0,1-.48,0A1.06,1.06,0,0,1,2,7.34c-.3-.82-.7-1.6-1-2.39L.78,4.63a.59.59,0,0,1,.6.08l1.46,1.1A1.26,1.26,0,0,0,4.25,6C6.45,5,8.66,4,10.86,3l4-1.79A3.76,3.76,0,0,1,17.67,1a5,5,0,0,1,.82.44v.11c-.46.29-.9.61-1.38.86-1.22.63-2.46,1.23-3.68,1.85a.83.83,0,0,0-.36.36c-.48,1-1,2-1.42,3.06a6.43,6.43,0,0,0-1.8.63l.49-2.63c-1,.45-2,.91-3,1.32Zm5.59,13a5.87,5.87,0,1,1,5.87-5.87A5.87,5.87,0,0,1,12.88,20Z"/></g></g></svg>