<svg id="Layer_1" data-name="Layer 1" xmlns="http://www.w3.org/2000/svg" viewBox="0 0 52.23 52.26"><defs><style>.cls-1{fill:#f7a71d;}</style></defs><path class="cls-1" d="M21.2,0l3.15.92c.63.18,1.42.2,1.85.6s.43,1.18.62,1.79q3.42,11.22,6.84,22.42a.82.82,0,0,0,.67.64q7,1.85,14,3.74a4.14,4.14,0,1,1-2.09,8C39.12,36.2,32,34.32,25,32.42L1.2,26,.71,25.9V11.66c1.29.34,2.55.66,3.8,1,.15,0,.28.27.35.45.74,1.82,1.48,3.64,2.2,5.47a.91.91,0,0,0,.69.63l12.67,3.39a4.24,4.24,0,0,0,.47.1V0Z"/><path class="cls-1" d="M52.23,52.26H0V46.75H52.23Z"/></svg>