<svg id="Layer_1" data-name="Layer 1" xmlns="http://www.w3.org/2000/svg" viewBox="0 0 52.23 44.82"><defs><style>.cls-1{fill:#f7a71d;}</style></defs><path class="cls-1" d="M52.23,17.2a10.72,10.72,0,0,1-.61,1.44,3.86,3.86,0,0,1-2.47,1.74L16.92,29,6.86,31.71l-.2.05L0,20.21c1.23-.33,2.41-.66,3.6-.95a.63.63,0,0,1,.44.18c1.44,1.12,2.87,2.23,4.29,3.37A1.05,1.05,0,0,0,9.38,23c3.94-1.08,7.88-2.12,11.82-3.18l.37-.13L10.94,1.31c.26-.08.49-.16.72-.22C13,.74,14.25.41,15.54,0a.6.6,0,0,1,.67.16L29.93,13c1.1,1,2.22,2.05,3.3,3.11a1,1,0,0,0,1.08.25c4.26-1.16,8.54-2.27,12.8-3.46a3.92,3.92,0,0,1,5.06,3s0,0,.06.08Z"/><path class="cls-1" d="M1.7,44.82v-5.1H50.61v5.1Z"/></svg>