<?xml version="1.0" encoding="utf-8"?>
<!-- Generator: Adobe Illustrator 24.3.0, SVG Export Plug-In . SVG Version: 6.00 Build 0)  -->
<svg version="1.2" baseProfile="tiny" id="Layer_1" xmlns="http://www.w3.org/2000/svg" xmlns:xlink="http://www.w3.org/1999/xlink"
	 x="0px" y="0px" viewBox="0 0 415.8 223.9" overflow="visible" xml:space="preserve">
<g>
	<path fill="#202529" d="M17.7,0c3.5-0.1,7.5,2.3,11.1,5.9c26.5,26.6,53,53.1,79.5,79.6c32.3,32.3,64.6,64.5,96.9,96.8
		c2.8,2.8,2.8,2.8,5.4,0.1C269.3,123.7,328.1,65,386.8,6.2c5.1-5.1,10.7-7.5,17.8-5.5c10.4,3,14.7,16.1,8.1,24.7
		c-0.9,1.2-2,2.4-3.1,3.5c-62.9,62.9-125.8,125.8-188.7,188.7c-8.3,8.3-17.5,8.3-25.7,0.1C132,154.7,69,91.6,5.9,28.6
		C-0.2,22.4-1.7,15,2,8.3C4.8,3.1,10,0,17.7,0z"/>
</g>
</svg>
