<svg id="Layer_1" data-name="Layer 1" xmlns="http://www.w3.org/2000/svg" viewBox="0 0 20.67 16.98"><defs><style>.cls-1{fill:#5a5a5a;}</style></defs><path id="Icon_ionic-ios-airplane" data-name="Icon ionic-ios-airplane" class="cls-1" d="M17.33,7H16.5l-3,.08a.12.12,0,0,1-.08,0L8.94.34A.75.75,0,0,0,8.32,0H7.22C7,0,6.88.26,7,.5L9.28,7.09a.08.08,0,0,1,0,.11h0L3.55,7.3a.36.36,0,0,1-.3-.15L1.54,5.08A.72.72,0,0,0,1,4.8H.19A.18.18,0,0,0,0,5,.13.13,0,0,0,0,5L.93,8.21a.75.75,0,0,1,0,.55L0,11.93a.19.19,0,0,0,.11.23H1a.72.72,0,0,0,.58-.28L3.27,9.78a.37.37,0,0,1,.3-.14l5.62.12a.09.09,0,0,1,.08.1v0L7,16.48c-.1.24,0,.5.25.5H8.31a.75.75,0,0,0,.63-.34l4.49-6.72a.12.12,0,0,1,.08,0l3,.08h.83c2.05,0,3.34-.66,3.34-1.47S19.38,7,17.33,7Z"/></svg>